<svg xmlns="http://www.w3.org/2000/svg" data-name="Layer 1" viewBox="0 0 502.17 118.76"><path d="M276.66 31.13c-12.63 0-22.58 4.08-29.84 12.22-7.26 8.15-10.89 18.64-10.89 31.48s3.73 23.09 11.19 31.36c7.46 8.28 17.3 12.41 29.53 12.41 10.95.1 19.52-2.61 25.71-8.13 6.19-5.53 9.87-11.88 11.04-19.07h-14.67c-1.68 4.18-4.48 7.44-8.4 9.78-3.92 2.34-8.53 3.51-13.83 3.51-6.06-.1-11.38-2.33-15.97-6.68s-7.08-10.28-7.49-17.76h62.27c.2-1.32.31-3.23.31-5.73 0-13.14-3.49-23.66-10.47-31.55-6.98-7.9-16.48-11.84-28.5-11.84Zm-23.31 36.36c1.02-6.93 3.49-12.36 7.41-16.31 3.92-3.95 9.17-5.92 15.74-5.92s11.61 1.99 15.43 5.96c3.82 3.97 6.14 9.4 6.95 16.27h-45.54Zm119.67-36.52c-11.36 0-20.32 4.13-26.89 12.38V.34h-17.8v117.35l15.28.15 1.45-12.53c6.87 8.97 16.25 13.45 28.11 13.45s21.09-4.16 28.42-12.49c7.33-8.33 11-18.76 11-31.29s-3.71-23.12-11.12-31.48c-7.41-8.35-16.9-12.53-28.46-12.53Zm14.94 64.22c-4.66 5.42-10.69 8.14-18.07 8.14-5.86 0-10.91-1.86-15.17-5.58-4.25-3.72-7.12-8.56-8.59-14.52V66.5c1.48-5.91 4.34-10.72 8.59-14.44 4.25-3.72 9.31-5.58 15.17-5.58 7.44 0 13.47 2.71 18.11 8.14 4.63 5.42 6.95 12.21 6.95 20.36s-2.33 14.78-6.99 20.21Zm96.33-11.12c0 5.4-2.32 9.87-6.95 13.41-4.63 3.54-9.98 5.31-16.04 5.31s-10.33-1.71-13.72-5.12c-3.39-3.41-5.08-7.94-5.08-13.6V31.82h-17.95v54.24c0 9.63 2.98 17.49 8.94 23.57 5.96 6.09 13.62 9.13 23 9.13 5.4 0 10.71-1.2 15.93-3.59 5.22-2.39 9.38-5.63 12.49-9.7l1.3 12.38h15.97V31.82H484.3v52.26ZM202.74 72.92c0-1.4.11-2.77.3-4.12 6.79-2.36 12.72-6.13 16.59-11.2 4.94-6.47 7.41-13.67 7.41-21.62 0-9.47-3.29-17.84-9.86-25.1-6.57-7.26-14.44-10.89-23.61-10.89H143.3v117.35h17.27V70.43h25.54c-.04.82-.07 1.65-.07 2.48 0 23.75 18.03 43.3 41.15 45.69h1.8v-16.74l-1.79-.11c-13.87-2.28-24.45-14.32-24.45-28.84ZM160.57 14.9h32.4c5.09 0 9.43 2.05 13.02 6.15 3.59 4.1 5.39 9.03 5.39 14.78s-1.8 10.81-5.39 14.86-7.93 6.07-13.02 6.07h-32.4V14.9Z" style="fill:#184c44"/><path d="M59.35 25.12c-5.61-4.82-11.84-8.97-18.61-12.43C20.84 2.56.07 1.04.07 1.04v16.07c19.27 2.51 35.63 9.03 48.09 19.44a95.64 95.64 0 0 0-8.33 11.91c-.1.16-.18.33-.28.49a70.1 70.1 0 0 0-11.43-7.89C13.89 33.18 0 31.83 0 31.83V47.9c13.25 2.49 24.09 7.88 32.31 16.04-6.06 15.46-9.26 33.44-9.52 53.8h15.96c.38-29.33 7.3-52.6 20.6-69.63 13.29 17.04 20.22 40.31 20.6 69.63H95.9c-.26-20.34-3.45-38.3-9.5-53.75 8.27-8.2 19.18-13.6 32.54-16.07v-16.1s-14.21 1.5-28.25 9.24A69.664 69.664 0 0 0 79.17 49c-.11-.18-.2-.37-.31-.55-2.5-4.22-5.28-8.2-8.33-11.92 12.52-10.46 29.1-16.99 48.48-19.47V.79S96.86 3.11 78.14 12.6c-6.84 3.47-13.13 7.66-18.79 12.52Z" style="fill:#1dbc9d"/></svg>